<svg width="32" height="25" viewBox="0 0 32 25" fill="none" xmlns="http://www.w3.org/2000/svg">
<path d="M26.25 21.25H7.875C5.41406 21.25 3.5 19.3359 3.5 16.875V5.5H2.625C1.14844 5.5 0 6.70312 0 8.125V22.125C0 23.6016 1.14844 24.75 2.625 24.75H23.625C25.0469 24.75 26.25 23.6016 26.25 22.125V21.25ZM31.5 16.875V2.875C31.5 1.45312 30.2969 0.25 28.875 0.25H7.875C6.39844 0.25 5.25 1.45312 5.25 2.875V16.875C5.25 18.3516 6.39844 19.5 7.875 19.5H28.875C30.2969 19.5 31.5 18.3516 31.5 16.875ZM14 5.5C14 6.97656 12.7969 8.125 11.375 8.125C9.89844 8.125 8.75 6.97656 8.75 5.5C8.75 4.07812 9.89844 2.875 11.375 2.875C12.7969 2.875 14 4.07812 14 5.5ZM8.75 13.375L11.7578 10.3672C12.0312 10.0938 12.4141 10.0938 12.6875 10.3672L14.875 12.5L22.2578 5.11719C22.5312 4.84375 22.9141 4.84375 23.1875 5.11719L28 9.875V16H8.75V13.375Z" fill="#33394E"/>
</svg>
