<svg width="175" height="54" viewBox="0 0 175 54" fill="none" xmlns="http://www.w3.org/2000/svg">
<path d="M14.5227 41V11.9091H31.9659V15.0341H18.0455V24.8636H30.6591V27.9886H18.0455V41H14.5227ZM37.9993 41V11.9091H47.8288C50.111 11.9091 51.9766 12.321 53.4254 13.1449C54.8838 13.9593 55.9633 15.0625 56.6641 16.4545C57.3648 17.8466 57.7152 19.3996 57.7152 21.1136C57.7152 22.8277 57.3648 24.3854 56.6641 25.7869C55.9728 27.1884 54.9027 28.3059 53.4538 29.1392C52.005 29.9631 50.1489 30.375 47.8857 30.375H40.8402V27.25H47.772C49.3345 27.25 50.5893 26.9801 51.5362 26.4403C52.4832 25.9006 53.1697 25.1714 53.5959 24.2528C54.0315 23.3248 54.2493 22.2784 54.2493 21.1136C54.2493 19.9489 54.0315 18.9072 53.5959 17.9886C53.1697 17.0701 52.4785 16.3504 51.522 15.8295C50.5656 15.2992 49.2966 15.0341 47.7152 15.0341H41.522V41H37.9993ZM61.799 15.0341V11.9091H83.6172V15.0341H74.4695V41H70.9467V15.0341H61.799ZM100.304 41V11.9091H103.827V24.8636H119.338V11.9091H122.861V41H119.338V27.9886H103.827V41H100.304ZM143.209 32.0795V19.1818H146.561V41H143.209V37.3068H142.982C142.47 38.4148 141.675 39.357 140.595 40.1335C139.516 40.9006 138.152 41.2841 136.504 41.2841C135.141 41.2841 133.929 40.9858 132.868 40.3892C131.807 39.7831 130.974 38.8741 130.368 37.6619C129.762 36.4403 129.459 34.9015 129.459 33.0455V19.1818H132.811V32.8182C132.811 34.4091 133.256 35.678 134.146 36.625C135.046 37.572 136.192 38.0455 137.584 38.0455C138.417 38.0455 139.265 37.8324 140.126 37.4062C140.998 36.9801 141.727 36.3267 142.314 35.446C142.911 34.5653 143.209 33.4432 143.209 32.0795ZM153.156 41V11.9091H156.508V22.6477H156.792C157.038 22.2689 157.379 21.786 157.815 21.1989C158.26 20.6023 158.894 20.072 159.718 19.608C160.551 19.1345 161.678 18.8977 163.099 18.8977C164.936 18.8977 166.555 19.357 167.957 20.2756C169.358 21.1941 170.452 22.4962 171.238 24.1818C172.024 25.8674 172.417 27.8561 172.417 30.1477C172.417 32.4583 172.024 34.4612 171.238 36.1562C170.452 37.8419 169.363 39.1487 167.971 40.0767C166.579 40.9953 164.974 41.4545 163.156 41.4545C161.754 41.4545 160.632 41.2225 159.789 40.7585C158.946 40.285 158.298 39.75 157.843 39.1534C157.388 38.5473 157.038 38.0455 156.792 37.6477H156.394V41H153.156ZM156.451 30.0909C156.451 31.7386 156.692 33.1922 157.175 34.4517C157.658 35.7017 158.364 36.6818 159.292 37.392C160.22 38.0928 161.356 38.4432 162.701 38.4432C164.103 38.4432 165.272 38.0739 166.21 37.3352C167.156 36.5871 167.867 35.5833 168.34 34.3239C168.823 33.0549 169.065 31.6439 169.065 30.0909C169.065 28.5568 168.828 27.1742 168.354 25.9432C167.89 24.7027 167.185 23.7225 166.238 23.0028C165.3 22.2737 164.121 21.9091 162.701 21.9091C161.337 21.9091 160.192 22.2547 159.263 22.946C158.335 23.6278 157.635 24.5843 157.161 25.8153C156.688 27.0369 156.451 28.4621 156.451 30.0909Z" fill="#F27122"/>
<rect x="2" y="2" width="88" height="50" stroke="#F27122" stroke-width="3"/>
</svg>
