<svg width="40" height="40" viewBox="0 0 40 40" fill="none" xmlns="http://www.w3.org/2000/svg">
<circle cx="20" cy="20" r="20" fill="#D9D9D9"/>
<path d="M33.2969 21.7969C33.7188 21.375 33.7188 20.6719 33.2969 20.2031L25.4219 12.3281C24.6719 11.625 23.5 12.1406 23.5 13.125V17.625H17.125C16.4688 17.625 16 18.1406 16 18.75V23.25C16 23.9062 16.4688 24.375 17.125 24.375H23.5V28.875C23.5 29.9062 24.7188 30.375 25.4219 29.6719L33.2969 21.7969ZM19 29.4375V27.5625C19 27.2812 18.7188 27 18.4375 27H14.5C13.6562 27 13 26.3438 13 25.5V16.5C13 15.7031 13.6562 15 14.5 15H18.4375C18.7188 15 19 14.7656 19 14.4375V12.5625C19 12.2812 18.7188 12 18.4375 12H14.5C12.0156 12 10 14.0156 10 16.5V25.5C10 27.9844 12.0156 30 14.5 30H18.4375C18.7188 30 19 29.7656 19 29.4375Z" fill="#33394E"/>
</svg>
