<svg width="40" height="40" viewBox="0 0 40 40" fill="none" xmlns="http://www.w3.org/2000/svg">
<circle cx="20" cy="20" r="20" fill="#D9D9D9"/>
<path d="M20 10.5C13.3438 10.5 8 14.9062 8 20.25C8 22.5938 8.98438 24.7031 10.6719 26.3906C10.0625 28.7812 8.09375 30.8438 8.09375 30.8906C8 30.9375 8 31.0312 8 31.125C8 31.3594 8.14062 31.5 8.375 31.5C11.4688 31.5 13.8125 30.0469 14.9375 29.1094C16.4844 29.7188 18.1719 30 19.9531 30C19.9531 30 19.9531 30 20 30C26.6094 30 32 25.6406 32 20.25C32 14.9062 26.6094 10.5 20 10.5ZM24.5 21.375C24.5 21.6094 24.3125 21.75 24.125 21.75H21.5V24.375C21.5 24.6094 21.3125 24.75 21.125 24.75H18.875C18.6406 24.75 18.5 24.6094 18.5 24.375V21.75H15.875C15.6406 21.75 15.5 21.6094 15.5 21.375V19.125C15.5 18.9375 15.6406 18.75 15.875 18.75H18.5V16.125C18.5 15.9375 18.6406 15.75 18.875 15.75H21.125C21.3125 15.75 21.5 15.9375 21.5 16.125V18.75H24.125C24.3125 18.75 24.5 18.9375 24.5 19.125V21.375Z" fill="#33394E"/>
</svg>
