<svg width="173" height="54" viewBox="0 0 173 54" fill="none" xmlns="http://www.w3.org/2000/svg">
<path d="M12.5227 41V11.9091H29.9659V15.0341H16.0455V24.8636H28.6591V27.9886H16.0455V41H12.5227ZM35.9993 41V11.9091H45.8288C48.111 11.9091 49.9766 12.321 51.4254 13.1449C52.8838 13.9593 53.9633 15.0625 54.6641 16.4545C55.3648 17.8466 55.7152 19.3996 55.7152 21.1136C55.7152 22.8277 55.3648 24.3854 54.6641 25.7869C53.9728 27.1884 52.9027 28.3059 51.4538 29.1392C50.005 29.9631 48.1489 30.375 45.8857 30.375H38.8402V27.25H45.772C47.3345 27.25 48.5893 26.9801 49.5362 26.4403C50.4832 25.9006 51.1697 25.1714 51.5959 24.2528C52.0315 23.3248 52.2493 22.2784 52.2493 21.1136C52.2493 19.9489 52.0315 18.9072 51.5959 17.9886C51.1697 17.0701 50.4785 16.3504 49.522 15.8295C48.5656 15.2992 47.2966 15.0341 45.7152 15.0341H39.522V41H35.9993ZM59.799 15.0341V11.9091H81.6172V15.0341H72.4695V41H68.9467V15.0341H59.799ZM98.304 41V11.9091H101.827V24.8636H117.338V11.9091H120.861V41H117.338V27.9886H101.827V41H98.304ZM141.209 32.0795V19.1818H144.561V41H141.209V37.3068H140.982C140.47 38.4148 139.675 39.357 138.595 40.1335C137.516 40.9006 136.152 41.2841 134.504 41.2841C133.141 41.2841 131.929 40.9858 130.868 40.3892C129.807 39.7831 128.974 38.8741 128.368 37.6619C127.762 36.4403 127.459 34.9015 127.459 33.0455V19.1818H130.811V32.8182C130.811 34.4091 131.256 35.678 132.146 36.625C133.046 37.572 134.192 38.0455 135.584 38.0455C136.417 38.0455 137.265 37.8324 138.126 37.4062C138.998 36.9801 139.727 36.3267 140.314 35.446C140.911 34.5653 141.209 33.4432 141.209 32.0795ZM151.156 41V11.9091H154.508V22.6477H154.792C155.038 22.2689 155.379 21.786 155.815 21.1989C156.26 20.6023 156.894 20.072 157.718 19.608C158.551 19.1345 159.678 18.8977 161.099 18.8977C162.936 18.8977 164.555 19.357 165.957 20.2756C167.358 21.1941 168.452 22.4962 169.238 24.1818C170.024 25.8674 170.417 27.8561 170.417 30.1477C170.417 32.4583 170.024 34.4612 169.238 36.1562C168.452 37.8419 167.363 39.1487 165.971 40.0767C164.579 40.9953 162.974 41.4545 161.156 41.4545C159.754 41.4545 158.632 41.2225 157.789 40.7585C156.946 40.285 156.298 39.75 155.843 39.1534C155.388 38.5473 155.038 38.0455 154.792 37.6477H154.394V41H151.156ZM154.451 30.0909C154.451 31.7386 154.692 33.1922 155.175 34.4517C155.658 35.7017 156.364 36.6818 157.292 37.392C158.22 38.0928 159.356 38.4432 160.701 38.4432C162.103 38.4432 163.272 38.0739 164.21 37.3352C165.156 36.5871 165.867 35.5833 166.34 34.3239C166.823 33.0549 167.065 31.6439 167.065 30.0909C167.065 28.5568 166.828 27.1742 166.354 25.9432C165.89 24.7027 165.185 23.7225 164.238 23.0028C163.3 22.2737 162.121 21.9091 160.701 21.9091C159.337 21.9091 158.192 22.2547 157.263 22.946C156.335 23.6278 155.635 24.5843 155.161 25.8153C154.688 27.0369 154.451 28.4621 154.451 30.0909Z" fill="white"/>
<rect x="2" y="2" width="88" height="50" stroke="white" stroke-width="3"/>
</svg>
