<svg width="40" height="40" viewBox="0 0 40 40" fill="none" xmlns="http://www.w3.org/2000/svg">
<circle cx="20" cy="20" r="20" fill="#D9D9D9"/>
<path d="M30.8281 22.8125L28.8125 21.6875C29.0469 20.5625 29.0469 19.4844 28.8125 18.3594L30.8281 17.2344C31.0625 17.0938 31.1562 16.8125 31.0625 16.5781C30.5469 14.8906 29.6562 13.3906 28.5312 12.125C28.3438 11.9375 28.0625 11.8906 27.8281 12.0312L25.8125 13.1562C24.9688 12.4531 24.0312 11.8906 23 11.5156V9.21875C23 8.98438 22.8125 8.75 22.5312 8.70312C20.7969 8.28125 19.0625 8.32812 17.4219 8.70312C17.1406 8.75 17 8.98438 17 9.21875V11.5156C15.9219 11.8906 14.9844 12.4531 14.1406 13.2031L12.125 12.0312C11.8906 11.8906 11.6094 11.9375 11.4219 12.125C10.2969 13.3906 9.40625 14.8906 8.89062 16.5781C8.79688 16.8125 8.89062 17.0938 9.125 17.2344L11.1406 18.3594C10.9531 19.4844 10.9531 20.5625 11.1406 21.6875L9.125 22.8125C8.89062 22.9531 8.79688 23.2344 8.89062 23.4688C9.40625 25.1562 10.2969 26.6562 11.4219 27.9219C11.6094 28.1094 11.8906 28.1562 12.125 28.0156L14.1406 26.8906C14.9844 27.5938 15.9219 28.1562 17 28.5312V30.8281C17 31.0625 17.1875 31.2969 17.4219 31.3906C19.1562 31.7656 20.8906 31.7188 22.5312 31.3906C22.8125 31.2969 23 31.0625 23 30.8281V28.5312C24.0312 28.1562 24.9688 27.5938 25.8125 26.8906L27.8281 28.0156C28.0625 28.1562 28.3438 28.1094 28.5312 27.9219C29.7031 26.6562 30.5469 25.1562 31.1094 23.4688C31.1562 23.2344 31.0625 22.9531 30.8281 22.8125ZM20 23.75C17.8906 23.75 16.25 22.1094 16.25 20C16.25 17.9375 17.8906 16.25 20 16.25C22.0625 16.25 23.75 17.9375 23.75 20C23.75 22.1094 22.0625 23.75 20 23.75Z" fill="#33394E"/>
</svg>
