<svg width="28" height="29" viewBox="0 0 28 29" fill="none" xmlns="http://www.w3.org/2000/svg">
<path d="M13.5625 0.9375C6.07031 0.9375 0 7.00781 0 14.5C0 21.9922 6.07031 28.0625 13.5625 28.0625C21.0547 28.0625 27.125 21.9922 27.125 14.5C27.125 7.00781 21.0547 0.9375 13.5625 0.9375ZM13.5625 25.4375C7.49219 25.4375 2.625 20.5703 2.625 14.5C2.625 8.48438 7.49219 3.5625 13.5625 3.5625C19.5781 3.5625 24.5 8.48438 24.5 14.5C24.5 20.5703 19.5781 25.4375 13.5625 25.4375ZM9.1875 13.625C10.1172 13.625 10.9375 12.8594 10.9375 11.875C10.9375 10.9453 10.1172 10.125 9.1875 10.125C8.20312 10.125 7.4375 10.9453 7.4375 11.875C7.4375 12.8594 8.20312 13.625 9.1875 13.625ZM17.9375 13.625C18.8672 13.625 19.6875 12.8594 19.6875 11.875C19.6875 10.9453 18.8672 10.125 17.9375 10.125C16.9531 10.125 16.1875 10.9453 16.1875 11.875C16.1875 12.8594 16.9531 13.625 17.9375 13.625ZM18.1562 17.6172C17.0078 18.9844 15.3125 19.75 13.5625 19.75C11.7578 19.75 10.0625 18.9844 8.96875 17.6172C8.47656 17.0703 7.65625 17.0156 7.10938 17.4531C6.5625 17.8906 6.45312 18.7656 6.94531 19.3125C8.58594 21.2812 10.9922 22.375 13.5625 22.375C16.0781 22.375 18.4844 21.2812 20.125 19.3125C20.6172 18.7656 20.5625 17.8906 19.9609 17.4531C19.4141 17.0156 18.5938 17.0703 18.1562 17.6172Z" fill="black"/>
</svg>
