<svg width="45" height="44" viewBox="0 0 45 44" fill="none" xmlns="http://www.w3.org/2000/svg">
<ellipse cx="22.5754" cy="21.8419" rx="21.6452" ry="21.6532" fill="#D9D9D9"/>
<path d="M26.1267 21.7161L30.8142 17.0286C31.4236 16.4661 31.4236 15.5286 30.8142 14.9661L29.783 13.9348C29.2205 13.3254 28.283 13.3254 27.7205 13.9348L23.033 18.6223L18.2986 13.9348C17.7361 13.3254 16.7986 13.3254 16.2361 13.9348L15.2048 14.9661C14.5955 15.5286 14.5955 16.4661 15.2048 17.0286L19.8923 21.7161L15.2048 26.4504C14.5955 27.0129 14.5955 27.9504 15.2048 28.5129L16.2361 29.5442C16.7986 30.1536 17.7361 30.1536 18.2986 29.5442L23.033 24.8567L27.7205 29.5442C28.283 30.1536 29.2205 30.1536 29.783 29.5442L30.8142 28.5129C31.4236 27.9504 31.4236 27.0129 30.8142 26.4504L26.1267 21.7161Z" fill="#878A8C"/>
</svg>
